<svg width="32" height="32" viewBox="0 0 32 32" fill="none" xmlns="http://www.w3.org/2000/svg">
<path d="M30.6667 7.99999V2.66666C30.6667 2.31304 30.5262 1.9739 30.2761 1.72385C30.0261 1.4738 29.687 1.33333 29.3333 1.33333H2.66667C2.31305 1.33333 1.97391 1.4738 1.72386 1.72385C1.47381 1.9739 1.33334 2.31304 1.33334 2.66666V7.99999H30.6667Z" fill="#2EC5CE"/>
<path d="M1.33334 10.6667V29.3333C1.33334 29.6869 1.47381 30.0261 1.72386 30.2761C1.97391 30.5262 2.31305 30.6667 2.66667 30.6667H9.33334V10.6667H1.33334Z" fill="#D6B1FF"/>
<path d="M12 30.6667H29.3333C29.687 30.6667 30.0261 30.5262 30.2761 30.2761C30.5262 30.0261 30.6667 29.6869 30.6667 29.3333V10.6667H12V30.6667Z" fill="#8C30F5"/>
</svg>
