<svg width="32" height="32" viewBox="0 0 32 32" fill="none" xmlns="http://www.w3.org/2000/svg">
<path d="M6.66668 1.33333H2.66668C2.31305 1.33333 1.97392 1.47381 1.72387 1.72386C1.47382 1.97391 1.33334 2.31305 1.33334 2.66667V29.3333C1.33334 29.687 1.47382 30.0261 1.72387 30.2761C1.97392 30.5262 2.31305 30.6667 2.66668 30.6667H6.66668V1.33333Z" fill="#D6B1FF"/>
<path d="M9.33334 30.6667H22.6667V1.33333H9.33334V30.6667ZM16 25.3333C15.6464 25.3333 15.3072 25.1929 15.0572 24.9428C14.8072 24.6928 14.6667 24.3536 14.6667 24C14.6667 23.6464 14.8072 23.3072 15.0572 23.0572C15.3072 22.8071 15.6464 22.6667 16 22.6667C16.3536 22.6667 16.6928 22.8071 16.9428 23.0572C17.1929 23.3072 17.3333 23.6464 17.3333 24C17.3333 24.3536 17.1929 24.6928 16.9428 24.9428C16.6928 25.1929 16.3536 25.3333 16 25.3333ZM16 6.66667C16.3536 6.66667 16.6928 6.80714 16.9428 7.05719C17.1929 7.30724 17.3333 7.64638 17.3333 8C17.3333 8.35362 17.1929 8.69276 16.9428 8.94281C16.6928 9.19286 16.3536 9.33333 16 9.33333C15.6464 9.33333 15.3072 9.19286 15.0572 8.94281C14.8072 8.69276 14.6667 8.35362 14.6667 8C14.6667 7.64638 14.8072 7.30724 15.0572 7.05719C15.3072 6.80714 15.6464 6.66667 16 6.66667ZM16 14.6667C16.3536 14.6667 16.6928 14.8071 16.9428 15.0572C17.1929 15.3072 17.3333 15.6464 17.3333 16C17.3333 16.3536 17.1929 16.6928 16.9428 16.9428C16.6928 17.1929 16.3536 17.3333 16 17.3333C15.6464 17.3333 15.3072 17.1929 15.0572 16.9428C14.8072 16.6928 14.6667 16.3536 14.6667 16C14.6667 15.6464 14.8072 15.3072 15.0572 15.0572C15.3072 14.8071 15.6464 14.6667 16 14.6667Z" fill="#8C30F5"/>
<path d="M29.3333 1.33333H25.3333V30.6667H29.3333C29.687 30.6667 30.0261 30.5262 30.2762 30.2761C30.5262 30.0261 30.6667 29.687 30.6667 29.3333V2.66667C30.6667 2.31305 30.5262 1.97391 30.2762 1.72386C30.0261 1.47381 29.687 1.33333 29.3333 1.33333Z" fill="#2EC5CE"/>
</svg>
