<svg width="32" height="32" viewBox="0 0 32 32" fill="none" xmlns="http://www.w3.org/2000/svg">
<path d="M31.4667 1.6C31.2 1.33333 30.6667 1.33333 30.2667 1.33333L22.6667 3.6V30.4L31.0667 28C31.6 27.8667 32 27.3333 32 26.6667V2.66667C32 2.26667 31.8667 1.86667 31.4667 1.6Z" fill="#D6B1FF"/>
<path d="M20 3.6L12 1.6V28.4L20 30.4V3.6Z" fill="#2EC5CE"/>
<path d="M9.33333 1.6L0.933334 4C0.400001 4.26667 0 4.8 0 5.33333V29.3333C0 29.7333 0.133333 30.1333 0.533333 30.4C0.799999 30.5333 1.06667 30.6667 1.33333 30.6667H1.73333L9.33333 28.4V1.6Z" fill="#8C30F5"/>
</svg>
