<svg width="32" height="32" viewBox="0 0 32 32" fill="none" xmlns="http://www.w3.org/2000/svg">
<path d="M12 13.3333H2.66667C2.31305 13.3333 1.97391 13.1929 1.72386 12.9428C1.47381 12.6928 1.33334 12.3536 1.33334 12V2.66667C1.33334 2.31305 1.47381 1.97391 1.72386 1.72386C1.97391 1.47381 2.31305 1.33333 2.66667 1.33333H12C12.3536 1.33333 12.6928 1.47381 12.9428 1.72386C13.1929 1.97391 13.3333 2.31305 13.3333 2.66667V12C13.3333 12.3536 13.1929 12.6928 12.9428 12.9428C12.6928 13.1929 12.3536 13.3333 12 13.3333Z" fill="#8C30F5"/>
<path d="M12 30.6667H2.66667C2.31305 30.6667 1.97391 30.5262 1.72386 30.2761C1.47381 30.0261 1.33334 29.687 1.33334 29.3333V20C1.33334 19.6464 1.47381 19.3072 1.72386 19.0572C1.97391 18.8071 2.31305 18.6667 2.66667 18.6667H12C12.3536 18.6667 12.6928 18.8071 12.9428 19.0572C13.1929 19.3072 13.3333 19.6464 13.3333 20V29.3333C13.3333 29.687 13.1929 30.0261 12.9428 30.2761C12.6928 30.5262 12.3536 30.6667 12 30.6667Z" fill="#8C30F5"/>
<path d="M17.3333 2.66667H30.6667V5.33333H17.3333V2.66667Z" fill="#2EC5CE"/>
<path d="M30.6667 20H17.3333V22.6667H30.6667V20Z" fill="#2EC5CE"/>
<path d="M30.6667 26.6667H17.3333V29.3333H30.6667V26.6667Z" fill="#D6B1FF"/>
<path d="M30.6667 9.33333H17.3333V12H30.6667V9.33333Z" fill="#D6B1FF"/>
</svg>
