<svg width="32" height="32" viewBox="0 0 32 32" fill="none" xmlns="http://www.w3.org/2000/svg">
<path d="M15.208 0.176L0.781342 6.916C0.683781 6.96074 0.601133 7.03257 0.543236 7.12295C0.485339 7.21332 0.454633 7.31843 0.454773 7.42576C0.454914 7.53309 0.485894 7.63812 0.544027 7.72834C0.602161 7.81857 0.684997 7.89018 0.782675 7.93467L15.3227 14.6253C15.752 14.8227 16.248 14.8227 16.6773 14.6253L31.2173 7.93467C31.3151 7.89031 31.398 7.8188 31.4563 7.72866C31.5145 7.63851 31.5456 7.53352 31.5459 7.42619C31.5462 7.31886 31.5156 7.21371 31.4578 7.12326C31.4001 7.03281 31.3175 6.96087 31.22 6.916L16.792 0.176C16.5441 0.060125 16.2737 6.86646e-05 16 6.86646e-05C15.7263 6.86646e-05 15.456 0.060125 15.208 0.176V0.176Z" fill="#8C30F5"/>
<path opacity="0.64" d="M31.22 15.568L28.24 14.176C28.0266 14.0763 27.794 14.0243 27.5584 14.0236C27.3229 14.0229 27.09 14.0735 26.876 14.172L16.6773 18.8653C16.4649 18.963 16.2338 19.0136 16 19.0136C15.7662 19.0136 15.5351 18.963 15.3227 18.8653L5.12267 14.172C4.90886 14.0737 4.67621 14.0232 4.4409 14.0239C4.20559 14.0246 3.97324 14.0765 3.76001 14.176L0.780006 15.568C0.682503 15.6129 0.599949 15.6848 0.54217 15.7753C0.48439 15.8657 0.453823 15.9709 0.454103 16.0782C0.454384 16.1855 0.485502 16.2905 0.543754 16.3807C0.602006 16.4708 0.684937 16.5423 0.782674 16.5867L15.3227 23.276C15.535 23.3742 15.7661 23.4251 16 23.4251C16.2339 23.4251 16.465 23.3742 16.6773 23.276L31.2173 16.5867C31.3151 16.5423 31.398 16.4708 31.4563 16.3807C31.5145 16.2905 31.5456 16.1855 31.5459 16.0782C31.5462 15.9709 31.5156 15.8657 31.4578 15.7753C31.4001 15.6848 31.3175 15.6129 31.22 15.568Z" fill="#D6B1FF"/>
<path d="M31.22 24.144L28.24 22.752C28.0266 22.6523 27.794 22.6003 27.5585 22.5996C27.3229 22.5989 27.09 22.6495 26.876 22.748L16.6774 27.44C16.4649 27.5377 16.2338 27.5883 16 27.5883C15.7662 27.5883 15.5351 27.5377 15.3227 27.44L5.12269 22.7467C4.90887 22.6484 4.67623 22.5979 4.44091 22.5986C4.2056 22.5992 3.97326 22.6512 3.76002 22.7507L0.780019 24.144C0.682891 24.189 0.600708 24.261 0.543205 24.3513C0.485701 24.4416 0.455288 24.5465 0.455568 24.6535C0.455849 24.7606 0.486813 24.8653 0.544789 24.9553C0.602765 25.0453 0.685324 25.1168 0.782686 25.1613L15.3227 31.852C15.752 32.0493 16.248 32.0493 16.6774 31.852L31.2174 25.1613C31.3147 25.1168 31.3973 25.0453 31.4553 24.9553C31.5132 24.8653 31.5442 24.7606 31.5445 24.6535C31.5448 24.5465 31.5143 24.4416 31.4568 24.3513C31.3993 24.261 31.3171 24.189 31.22 24.144Z" fill="#2EC5CE"/>
</svg>
